<svg xmlns="http://www.w3.org/2000/svg" xmlns:xlink="http://www.w3.org/1999/xlink" width="922" zoomAndPan="magnify" viewBox="0 0 691.5 242.999999" height="324" preserveAspectRatio="xMidYMid meet" version="1.0"><defs><g/></defs><g fill="#f93f4a" fill-opacity="1"><g transform="translate(79.886338, 153.602121)"><g><path d="M 29.421875 -16 C 30.328125 -15.84375 31.4375 -15.703125 32.75 -15.578125 C 34.0625 -15.453125 35.289062 -15.390625 36.4375 -15.390625 C 39.226562 -15.390625 41.796875 -15.800781 44.140625 -16.625 C 46.484375 -17.445312 48.492188 -18.71875 50.171875 -20.4375 C 51.859375 -22.164062 53.171875 -24.40625 54.109375 -27.15625 C 55.054688 -29.90625 55.53125 -33.207031 55.53125 -37.0625 C 55.53125 -44.445312 53.804688 -50.003906 50.359375 -53.734375 C 46.910156 -57.472656 42.3125 -59.34375 36.5625 -59.34375 C 35.414062 -59.34375 34.25 -59.300781 33.0625 -59.21875 C 31.875 -59.132812 30.660156 -59.015625 29.421875 -58.859375 Z M 36.328125 1.96875 C 34.929688 1.96875 33.328125 1.925781 31.515625 1.84375 C 29.710938 1.757812 27.847656 1.59375 25.921875 1.34375 C 23.992188 1.101562 22.0625 0.796875 20.125 0.421875 C 18.195312 0.0546875 16.414062 -0.453125 14.78125 -1.109375 C 10.257812 -2.828125 8 -5.820312 8 -10.09375 L 8 -67.59375 C 8 -69.320312 8.46875 -70.65625 9.40625 -71.59375 C 10.351562 -72.539062 11.648438 -73.300781 13.296875 -73.875 C 16.828125 -75.019531 20.5625 -75.773438 24.5 -76.140625 C 28.4375 -76.515625 31.96875 -76.703125 35.09375 -76.703125 C 41.488281 -76.703125 47.289062 -75.921875 52.5 -74.359375 C 57.71875 -72.804688 62.191406 -70.40625 65.921875 -67.15625 C 69.660156 -63.914062 72.554688 -59.832031 74.609375 -54.90625 C 76.660156 -49.988281 77.6875 -44.164062 77.6875 -37.4375 C 77.6875 -30.863281 76.703125 -25.132812 74.734375 -20.25 C 72.765625 -15.363281 69.953125 -11.257812 66.296875 -7.9375 C 62.648438 -4.613281 58.28125 -2.128906 53.1875 -0.484375 C 48.101562 1.148438 42.484375 1.96875 36.328125 1.96875 Z M 36.328125 1.96875 "/></g></g></g><g fill="#f93f4a" fill-opacity="1"><g transform="translate(159.420334, 153.602121)"><g><path d="M 32.015625 -13.296875 C 33.410156 -13.296875 34.945312 -13.4375 36.625 -13.71875 C 38.3125 -14.007812 39.566406 -14.398438 40.390625 -14.890625 L 40.390625 -24.75 L 31.515625 -24.015625 C 29.222656 -23.847656 27.335938 -23.351562 25.859375 -22.53125 C 24.378906 -21.707031 23.640625 -20.476562 23.640625 -18.84375 C 23.640625 -17.195312 24.273438 -15.859375 25.546875 -14.828125 C 26.816406 -13.804688 28.972656 -13.296875 32.015625 -13.296875 Z M 31.03125 -61.6875 C 35.457031 -61.6875 39.5 -61.234375 43.15625 -60.328125 C 46.8125 -59.429688 49.929688 -58.054688 52.515625 -56.203125 C 55.097656 -54.359375 57.085938 -52.019531 58.484375 -49.1875 C 59.878906 -46.351562 60.578125 -43.007812 60.578125 -39.15625 L 60.578125 -11.578125 C 60.578125 -9.441406 59.976562 -7.695312 58.78125 -6.34375 C 57.59375 -4.988281 56.179688 -3.816406 54.546875 -2.828125 C 49.210938 0.367188 41.703125 1.96875 32.015625 1.96875 C 27.660156 1.96875 23.738281 1.554688 20.25 0.734375 C 16.757812 -0.0859375 13.765625 -1.316406 11.265625 -2.953125 C 8.765625 -4.597656 6.835938 -6.691406 5.484375 -9.234375 C 4.128906 -11.773438 3.453125 -14.726562 3.453125 -18.09375 C 3.453125 -23.757812 5.132812 -28.109375 8.5 -31.140625 C 11.863281 -34.179688 17.070312 -36.070312 24.125 -36.8125 L 40.265625 -38.53125 L 40.265625 -39.40625 C 40.265625 -41.78125 39.21875 -43.476562 37.125 -44.5 C 35.03125 -45.53125 32.015625 -46.046875 28.078125 -46.046875 C 24.953125 -46.046875 21.910156 -45.71875 18.953125 -45.0625 C 16.003906 -44.40625 13.335938 -43.582031 10.953125 -42.59375 C 9.890625 -43.332031 8.988281 -44.460938 8.25 -45.984375 C 7.507812 -47.503906 7.140625 -49.085938 7.140625 -50.734375 C 7.140625 -52.859375 7.648438 -54.554688 8.671875 -55.828125 C 9.703125 -57.109375 11.285156 -58.195312 13.421875 -59.09375 C 15.796875 -60 18.601562 -60.65625 21.84375 -61.0625 C 25.09375 -61.476562 28.15625 -61.6875 31.03125 -61.6875 Z M 31.03125 -61.6875 "/></g></g></g><g fill="#f93f4a" fill-opacity="1"><g transform="translate(223.933907, 153.602121)"><g><path d="M 5.90625 -76.453125 C 5.90625 -79.578125 6.953125 -82.207031 9.046875 -84.34375 C 11.140625 -86.476562 13.910156 -87.546875 17.359375 -87.546875 C 20.804688 -87.546875 23.578125 -86.476562 25.671875 -84.34375 C 27.765625 -82.207031 28.8125 -79.578125 28.8125 -76.453125 C 28.8125 -73.335938 27.765625 -70.710938 25.671875 -68.578125 C 23.578125 -66.441406 20.804688 -65.375 17.359375 -65.375 C 13.910156 -65.375 11.140625 -66.441406 9.046875 -68.578125 C 6.953125 -70.710938 5.90625 -73.335938 5.90625 -76.453125 Z M 27.828125 -0.125 C 26.921875 0.0390625 25.582031 0.265625 23.8125 0.546875 C 22.050781 0.835938 20.269531 0.984375 18.46875 0.984375 C 16.664062 0.984375 15.046875 0.859375 13.609375 0.609375 C 12.171875 0.367188 10.957031 -0.117188 9.96875 -0.859375 C 8.988281 -1.597656 8.226562 -2.601562 7.6875 -3.875 C 7.15625 -5.144531 6.890625 -6.804688 6.890625 -8.859375 L 6.890625 -58.984375 C 7.796875 -59.140625 9.128906 -59.359375 10.890625 -59.640625 C 12.660156 -59.929688 14.445312 -60.078125 16.25 -60.078125 C 18.0625 -60.078125 19.679688 -59.953125 21.109375 -59.703125 C 22.546875 -59.460938 23.753906 -58.972656 24.734375 -58.234375 C 25.722656 -57.492188 26.484375 -56.488281 27.015625 -55.21875 C 27.554688 -53.945312 27.828125 -52.285156 27.828125 -50.234375 Z M 27.828125 -0.125 "/></g></g></g><g fill="#f93f4a" fill-opacity="1"><g transform="translate(256.190439, 153.602121)"><g><path d="M 27.703125 -0.125 C 26.796875 0.0390625 25.457031 0.265625 23.6875 0.546875 C 21.925781 0.835938 20.144531 0.984375 18.34375 0.984375 C 16.539062 0.984375 14.921875 0.859375 13.484375 0.609375 C 12.046875 0.367188 10.832031 -0.117188 9.84375 -0.859375 C 8.863281 -1.597656 8.101562 -2.601562 7.5625 -3.875 C 7.03125 -5.144531 6.765625 -6.804688 6.765625 -8.859375 L 6.765625 -80.28125 C 7.671875 -80.445312 9.003906 -80.671875 10.765625 -80.953125 C 12.535156 -81.242188 14.320312 -81.390625 16.125 -81.390625 C 17.9375 -81.390625 19.554688 -81.265625 20.984375 -81.015625 C 22.421875 -80.765625 23.632812 -80.269531 24.625 -79.53125 C 25.613281 -78.800781 26.375 -77.796875 26.90625 -76.515625 C 27.4375 -75.242188 27.703125 -73.582031 27.703125 -71.53125 Z M 27.703125 -0.125 "/></g></g></g><g fill="#f93f4a" fill-opacity="1"><g transform="translate(288.200762, 153.602121)"><g><path d="M 15.765625 -15.265625 C 14.859375 -17.316406 13.890625 -19.613281 12.859375 -22.15625 C 11.835938 -24.707031 10.769531 -27.625 9.65625 -30.90625 C 8.550781 -34.1875 7.40625 -37.941406 6.21875 -42.171875 C 5.03125 -46.398438 3.78125 -51.265625 2.46875 -56.765625 C 3.613281 -57.910156 5.148438 -58.910156 7.078125 -59.765625 C 9.003906 -60.628906 11.117188 -61.0625 13.421875 -61.0625 C 16.296875 -61.0625 18.675781 -60.46875 20.5625 -59.28125 C 22.445312 -58.09375 23.84375 -55.859375 24.75 -52.578125 L 34.46875 -18.71875 L 34.96875 -18.71875 C 35.945312 -21.507812 36.910156 -24.546875 37.859375 -27.828125 C 38.804688 -31.109375 39.726562 -34.492188 40.625 -37.984375 C 41.53125 -41.472656 42.375 -44.960938 43.15625 -48.453125 C 43.9375 -51.941406 44.613281 -55.367188 45.1875 -58.734375 C 48.144531 -60.285156 51.382812 -61.0625 54.90625 -61.0625 C 57.78125 -61.0625 60.160156 -60.445312 62.046875 -59.21875 C 63.941406 -57.988281 64.890625 -55.859375 64.890625 -52.828125 C 64.890625 -50.609375 64.597656 -48.039062 64.015625 -45.125 C 63.441406 -42.207031 62.679688 -39.109375 61.734375 -35.828125 C 60.796875 -32.546875 59.691406 -29.160156 58.421875 -25.671875 C 57.148438 -22.179688 55.816406 -18.753906 54.421875 -15.390625 C 53.023438 -12.023438 51.585938 -8.84375 50.109375 -5.84375 C 48.628906 -2.851562 47.191406 -0.164062 45.796875 2.21875 C 43.503906 6.238281 41.367188 9.519531 39.390625 12.0625 C 37.421875 14.613281 35.535156 16.601562 33.734375 18.03125 C 31.929688 19.46875 30.125 20.453125 28.3125 20.984375 C 26.507812 21.523438 24.625 21.796875 22.65625 21.796875 C 19.207031 21.796875 16.414062 20.769531 14.28125 18.71875 C 12.144531 16.664062 10.875 14 10.46875 10.71875 C 13.09375 8.664062 15.71875 6.382812 18.34375 3.875 C 20.96875 1.375 23.347656 -1.1875 25.484375 -3.8125 C 24.085938 -4.226562 22.585938 -5.191406 20.984375 -6.703125 C 19.390625 -8.222656 17.648438 -11.078125 15.765625 -15.265625 Z M 15.765625 -15.265625 "/></g></g></g><g fill="#f93f4a" fill-opacity="1"><g transform="translate(353.57617, 153.602121)"><g><path d="M 59.59375 -18.34375 C 58.519531 -17.4375 57.140625 -16.71875 55.453125 -16.1875 C 53.773438 -15.65625 51.832031 -15.390625 49.625 -15.390625 C 46.664062 -15.390625 44.222656 -15.757812 42.296875 -16.5 C 40.367188 -17.238281 39.113281 -18.507812 38.53125 -20.3125 C 36.238281 -27.539062 34.351562 -33.390625 32.875 -37.859375 C 31.394531 -42.335938 30.242188 -46.257812 29.421875 -49.625 L 28.8125 -49.625 C 28.5625 -44.78125 28.375 -40.363281 28.25 -36.375 C 28.132812 -32.394531 28.054688 -28.515625 28.015625 -24.734375 C 27.972656 -20.960938 27.890625 -17.148438 27.765625 -13.296875 C 27.640625 -9.441406 27.453125 -5.175781 27.203125 -0.5 C 26.140625 -0.0820312 24.742188 0.265625 23.015625 0.546875 C 21.296875 0.835938 19.578125 0.984375 17.859375 0.984375 C 14.242188 0.984375 11.429688 0.410156 9.421875 -0.734375 C 7.410156 -1.890625 6.40625 -3.984375 6.40625 -7.015625 L 9.96875 -69.8125 C 10.625 -70.875 12.0625 -72.019531 14.28125 -73.25 C 16.5 -74.488281 19.617188 -75.109375 23.640625 -75.109375 C 27.992188 -75.109375 31.398438 -74.429688 33.859375 -73.078125 C 36.316406 -71.722656 38.125 -69.523438 39.28125 -66.484375 C 40.019531 -64.515625 40.816406 -62.257812 41.671875 -59.71875 C 42.535156 -57.175781 43.398438 -54.546875 44.265625 -51.828125 C 45.128906 -49.117188 45.96875 -46.429688 46.78125 -43.765625 C 47.601562 -41.097656 48.34375 -38.695312 49 -36.5625 L 49.625 -36.5625 C 51.59375 -43.457031 53.5625 -50.125 55.53125 -56.5625 C 57.5 -63.007812 59.304688 -68.410156 60.953125 -72.765625 C 62.179688 -73.421875 63.757812 -73.972656 65.6875 -74.421875 C 67.613281 -74.878906 69.769531 -75.109375 72.15625 -75.109375 C 76.175781 -75.109375 79.457031 -74.507812 82 -73.3125 C 84.539062 -72.125 86.019531 -70.425781 86.4375 -68.21875 C 86.757812 -66.570312 87.101562 -64.046875 87.46875 -60.640625 C 87.84375 -57.234375 88.234375 -53.394531 88.640625 -49.125 C 89.054688 -44.851562 89.46875 -40.335938 89.875 -35.578125 C 90.289062 -30.816406 90.679688 -26.238281 91.046875 -21.84375 C 91.421875 -17.457031 91.726562 -13.4375 91.96875 -9.78125 C 92.21875 -6.132812 92.382812 -3.328125 92.46875 -1.359375 C 91.070312 -0.535156 89.613281 0.0546875 88.09375 0.421875 C 86.570312 0.796875 84.625 0.984375 82.25 0.984375 C 79.125 0.984375 76.492188 0.453125 74.359375 -0.609375 C 72.234375 -1.679688 71.085938 -3.773438 70.921875 -6.890625 C 70.429688 -15.835938 70.125 -23.878906 70 -31.015625 C 69.875 -38.160156 69.6875 -44.15625 69.4375 -49 L 68.828125 -49 C 68.003906 -45.800781 66.8125 -41.78125 65.25 -36.9375 C 63.695312 -32.09375 61.8125 -25.894531 59.59375 -18.34375 Z M 59.59375 -18.34375 "/></g></g></g><g fill="#f93f4a" fill-opacity="1"><g transform="translate(449.23869, 153.602121)"><g><path d="M 32.015625 -13.296875 C 33.410156 -13.296875 34.945312 -13.4375 36.625 -13.71875 C 38.3125 -14.007812 39.566406 -14.398438 40.390625 -14.890625 L 40.390625 -24.75 L 31.515625 -24.015625 C 29.222656 -23.847656 27.335938 -23.351562 25.859375 -22.53125 C 24.378906 -21.707031 23.640625 -20.476562 23.640625 -18.84375 C 23.640625 -17.195312 24.273438 -15.859375 25.546875 -14.828125 C 26.816406 -13.804688 28.972656 -13.296875 32.015625 -13.296875 Z M 31.03125 -61.6875 C 35.457031 -61.6875 39.5 -61.234375 43.15625 -60.328125 C 46.8125 -59.429688 49.929688 -58.054688 52.515625 -56.203125 C 55.097656 -54.359375 57.085938 -52.019531 58.484375 -49.1875 C 59.878906 -46.351562 60.578125 -43.007812 60.578125 -39.15625 L 60.578125 -11.578125 C 60.578125 -9.441406 59.976562 -7.695312 58.78125 -6.34375 C 57.59375 -4.988281 56.179688 -3.816406 54.546875 -2.828125 C 49.210938 0.367188 41.703125 1.96875 32.015625 1.96875 C 27.660156 1.96875 23.738281 1.554688 20.25 0.734375 C 16.757812 -0.0859375 13.765625 -1.316406 11.265625 -2.953125 C 8.765625 -4.597656 6.835938 -6.691406 5.484375 -9.234375 C 4.128906 -11.773438 3.453125 -14.726562 3.453125 -18.09375 C 3.453125 -23.757812 5.132812 -28.109375 8.5 -31.140625 C 11.863281 -34.179688 17.070312 -36.070312 24.125 -36.8125 L 40.265625 -38.53125 L 40.265625 -39.40625 C 40.265625 -41.78125 39.21875 -43.476562 37.125 -44.5 C 35.03125 -45.53125 32.015625 -46.046875 28.078125 -46.046875 C 24.953125 -46.046875 21.910156 -45.71875 18.953125 -45.0625 C 16.003906 -44.40625 13.335938 -43.582031 10.953125 -42.59375 C 9.890625 -43.332031 8.988281 -44.460938 8.25 -45.984375 C 7.507812 -47.503906 7.140625 -49.085938 7.140625 -50.734375 C 7.140625 -52.859375 7.648438 -54.554688 8.671875 -55.828125 C 9.703125 -57.109375 11.285156 -58.195312 13.421875 -59.09375 C 15.796875 -60 18.601562 -60.65625 21.84375 -61.0625 C 25.09375 -61.476562 28.15625 -61.6875 31.03125 -61.6875 Z M 31.03125 -61.6875 "/></g></g></g><g fill="#f93f4a" fill-opacity="1"><g transform="translate(513.752269, 153.602121)"><g><path d="M 27.328125 -0.125 C 26.515625 0.125 25.222656 0.367188 23.453125 0.609375 C 21.691406 0.859375 19.863281 0.984375 17.96875 0.984375 C 16.164062 0.984375 14.546875 0.859375 13.109375 0.609375 C 11.671875 0.367188 10.457031 -0.117188 9.46875 -0.859375 C 8.488281 -1.597656 7.734375 -2.601562 7.203125 -3.875 C 6.671875 -5.144531 6.40625 -6.804688 6.40625 -8.859375 L 6.40625 -45.796875 C 6.40625 -47.691406 6.753906 -49.316406 7.453125 -50.671875 C 8.148438 -52.023438 9.15625 -53.234375 10.46875 -54.296875 C 11.78125 -55.367188 13.398438 -56.332031 15.328125 -57.1875 C 17.253906 -58.050781 19.328125 -58.8125 21.546875 -59.46875 C 23.765625 -60.125 26.0625 -60.632812 28.4375 -61 C 30.820312 -61.375 33.203125 -61.5625 35.578125 -61.5625 C 39.523438 -61.5625 42.644531 -60.800781 44.9375 -59.28125 C 47.238281 -57.757812 48.390625 -55.273438 48.390625 -51.828125 C 48.390625 -50.679688 48.222656 -49.550781 47.890625 -48.4375 C 47.566406 -47.332031 47.160156 -46.332031 46.671875 -45.4375 C 44.941406 -45.4375 43.171875 -45.351562 41.359375 -45.1875 C 39.554688 -45.019531 37.789062 -44.769531 36.0625 -44.4375 C 34.34375 -44.113281 32.722656 -43.765625 31.203125 -43.390625 C 29.691406 -43.023438 28.398438 -42.597656 27.328125 -42.109375 Z M 27.328125 -0.125 "/></g></g></g><g fill="#f93f4a" fill-opacity="1"><g transform="translate(561.891063, 153.602121)"><g><path d="M 27.328125 -20.5625 C 27.328125 -18.425781 28.003906 -16.90625 29.359375 -16 C 30.710938 -15.101562 32.625 -14.65625 35.09375 -14.65625 C 36.320312 -14.65625 37.59375 -14.753906 38.90625 -14.953125 C 40.21875 -15.160156 41.367188 -15.429688 42.359375 -15.765625 C 43.097656 -14.859375 43.734375 -13.847656 44.265625 -12.734375 C 44.796875 -11.628906 45.0625 -10.296875 45.0625 -8.734375 C 45.0625 -5.617188 43.890625 -3.078125 41.546875 -1.109375 C 39.210938 0.859375 35.09375 1.84375 29.1875 1.84375 C 21.957031 1.84375 16.394531 0.203125 12.5 -3.078125 C 8.601562 -6.359375 6.65625 -11.691406 6.65625 -19.078125 L 6.65625 -71.78125 C 7.550781 -72.03125 8.835938 -72.296875 10.515625 -72.578125 C 12.203125 -72.867188 13.992188 -73.015625 15.890625 -73.015625 C 19.492188 -73.015625 22.300781 -72.378906 24.3125 -71.109375 C 26.320312 -69.835938 27.328125 -67.148438 27.328125 -63.046875 L 27.328125 -55.15625 L 43.46875 -55.15625 C 43.957031 -54.257812 44.425781 -53.132812 44.875 -51.78125 C 45.332031 -50.425781 45.5625 -48.925781 45.5625 -47.28125 C 45.5625 -44.40625 44.921875 -42.332031 43.640625 -41.0625 C 42.367188 -39.789062 40.664062 -39.15625 38.53125 -39.15625 L 27.328125 -39.15625 Z M 27.328125 -20.5625 "/></g></g></g><g fill="#f93f4a" fill-opacity="1"><g transform="translate(608.676928, 153.602121)"><g/></g></g><g fill="#f93f4a" fill-opacity="1"><g transform="translate(630.837765, 153.602121)"><g/></g></g><g fill="#f93f4a" fill-opacity="1"><g transform="translate(48.071666, 153.113365)"><g><path d="M 2.71875 -9.984375 C 2.71875 -13.441406 3.785156 -16.320312 5.921875 -18.625 C 8.054688 -20.925781 10.972656 -22.078125 14.671875 -22.078125 C 18.378906 -22.078125 21.300781 -20.925781 23.4375 -18.625 C 25.570312 -16.320312 26.640625 -13.441406 26.640625 -9.984375 C 26.640625 -6.535156 25.570312 -3.660156 23.4375 -1.359375 C 21.300781 0.941406 18.378906 2.09375 14.671875 2.09375 C 10.972656 2.09375 8.054688 0.941406 5.921875 -1.359375 C 3.785156 -3.660156 2.71875 -6.535156 2.71875 -9.984375 Z M 2.71875 -9.984375 "/></g></g></g><g fill="#f93f4a" fill-opacity="1"><g transform="translate(613.552919, 153.113365)"><g><path d="M 2.71875 -9.984375 C 2.71875 -13.441406 3.785156 -16.320312 5.921875 -18.625 C 8.054688 -20.925781 10.972656 -22.078125 14.671875 -22.078125 C 18.378906 -22.078125 21.300781 -20.925781 23.4375 -18.625 C 25.570312 -16.320312 26.640625 -13.441406 26.640625 -9.984375 C 26.640625 -6.535156 25.570312 -3.660156 23.4375 -1.359375 C 21.300781 0.941406 18.378906 2.09375 14.671875 2.09375 C 10.972656 2.09375 8.054688 0.941406 5.921875 -1.359375 C 3.785156 -3.660156 2.71875 -6.535156 2.71875 -9.984375 Z M 2.71875 -9.984375 "/></g></g></g></svg>